<svg width="493" height="370" viewBox="0 0 493 370" fill="none" xmlns="http://www.w3.org/2000/svg">
<path d="M287.45 40.0217C279.901 44.4925 277.744 52.2009 276.85 55.3767C276.635 56.1475 274.108 65.6134 278.483 75.48C279.777 78.4092 281.164 81.4309 284.307 82.88C286.125 83.7434 287.758 83.6817 294.167 83.1267C297.156 82.88 300.391 82.5717 303.842 82.2017C306.276 79.0875 310.467 72.8592 311.699 64.1025C311.915 62.4684 314.442 42.9817 303.842 37.8017C296.909 34.3792 288.559 39.3434 287.45 40.0217Z" fill="#85BAF3"/>
<path d="M148.054 85.9942C151.9 85.9942 155.018 82.543 155.018 78.2859C155.018 74.0287 151.9 70.5775 148.054 70.5775C144.208 70.5775 141.09 74.0287 141.09 78.2859C141.09 82.543 144.208 85.9942 148.054 85.9942Z" fill="#85BAF3"/>
<path d="M305.968 209.512C308.827 209.512 311.145 207.276 311.145 204.517C311.145 201.759 308.827 199.522 305.968 199.522C303.109 199.522 300.792 201.759 300.792 204.517C300.792 207.276 303.109 209.512 305.968 209.512Z" fill="#85BAF3"/>
<path d="M148.116 179.358C150.243 179.358 151.967 177.632 151.967 175.503C151.967 173.375 150.243 171.649 148.116 171.649C145.989 171.649 144.264 173.375 144.264 175.503C144.264 177.632 145.989 179.358 148.116 179.358Z" fill="#85BAF3"/>
<path d="M140.936 83.435C144.323 83.435 147.068 80.5499 147.068 76.9909C147.068 73.4318 144.323 70.5467 140.936 70.5467C137.55 70.5467 134.805 73.4318 134.805 76.9909C134.805 80.5499 137.55 83.435 140.936 83.435Z" fill="#0245A3"/>
<path d="M304.551 201.619C306.644 201.619 308.341 199.852 308.341 197.672C308.341 195.493 306.644 193.726 304.551 193.726C302.458 193.726 300.761 195.493 300.761 197.672C300.761 199.852 302.458 201.619 304.551 201.619Z" fill="#0245A3"/>
<path d="M355.207 92.7775C357.504 92.7775 359.366 90.7897 359.366 88.3375C359.366 85.8854 357.504 83.8975 355.207 83.8975C352.909 83.8975 351.047 85.8854 351.047 88.3375C351.047 90.7897 352.909 92.7775 355.207 92.7775Z" fill="#0245A3"/>
<path d="M264.864 120.219C264.186 119.14 263.077 120.158 262.615 120.898C261.66 122.439 261.043 124.351 261.752 126.108C262.276 127.434 263.57 128.544 265.08 128.328C266.466 128.143 267.514 127.003 267.483 125.615C267.483 125.245 266.959 124.968 266.682 125.276C265.049 127.342 263.046 130.271 264.679 132.923C265.819 134.742 268.623 134.988 269.733 133.015C269.455 132.984 269.178 132.953 268.901 132.892C269.055 133.755 269.209 134.618 269.332 135.482C269.424 136.068 270.318 135.821 270.226 135.235C270.072 134.372 269.917 133.508 269.794 132.645C269.733 132.244 269.116 132.213 268.962 132.522C268.469 133.385 267.36 133.693 266.466 133.262C265.48 132.768 265.049 131.658 265.049 130.579C265.049 128.791 266.312 127.218 267.36 125.893C267.083 125.769 266.836 125.677 266.559 125.553C266.59 126.725 265.45 127.588 264.31 127.342C263.447 127.157 262.892 126.417 262.584 125.615C262.276 124.783 262.307 123.95 262.553 123.118C262.584 123.056 263.847 120.312 264.032 120.62C264.371 121.175 265.172 120.713 264.864 120.219Z" fill="#85BAF3"/>
<path d="M139.057 122.994C139.735 121.144 141.984 121.946 142.693 123.241C142.939 123.673 143.062 124.166 143.124 124.659C143.247 125.584 143.155 125.954 142.354 126.509C141.491 127.373 141.275 127.033 141.737 125.492C141.953 125.399 142.2 125.307 142.415 125.214C143.001 125.06 143.679 125.091 144.264 125.276C145.743 125.769 146.483 127.342 146.267 128.791C146.205 129.161 146.575 129.531 146.945 129.315C148.948 128.174 151.597 129.438 152.06 131.689C152.183 132.275 153.076 132.028 152.953 131.443C152.368 128.606 149.009 127.126 146.483 128.544C146.698 128.729 146.945 128.883 147.16 129.068C147.561 126.355 145.497 123.827 142.631 124.258C141.645 124.413 140.166 125.029 140.043 126.201C139.95 127.157 140.844 127.866 141.737 127.958C144.387 128.205 144.326 124.351 143.463 122.809C142.292 120.713 139.057 120.188 138.132 122.778C137.948 123.303 138.841 123.549 139.057 122.994Z" fill="#85BAF3"/>
<path d="M301.285 239.051C303.657 240.623 305.66 242.628 307.262 244.971C307.601 245.464 308.402 245.002 308.063 244.508C306.369 242.042 304.273 239.945 301.778 238.28C301.254 237.91 300.792 238.712 301.285 239.051Z" fill="#0245A3"/>
<path d="M307.293 240.747C307.786 241.333 308.248 241.949 308.741 242.535C309.111 242.998 309.758 242.35 309.388 241.888C308.895 241.302 308.433 240.685 307.94 240.099C307.57 239.637 306.923 240.315 307.293 240.747Z" fill="#0245A3"/>
<path d="M304.458 232.113C306.584 234.087 308.341 236.338 309.696 238.897C309.974 239.421 310.775 238.958 310.498 238.434C309.111 235.813 307.293 233.47 305.105 231.466C304.674 231.034 304.027 231.713 304.458 232.113Z" fill="#0245A3"/>
<path d="M91.4208 266.832C92.0987 273.523 93.2695 280.121 94.9026 286.658C95.0567 287.243 95.9502 286.997 95.7962 286.411C94.1939 279.967 93.023 273.43 92.3452 266.832C92.2835 266.246 91.3592 266.246 91.4208 266.832Z" fill="#E8E8E8"/>
<path d="M95.0875 286.966C101.158 288.538 107.474 288.538 113.544 286.966C114.13 286.812 113.883 285.918 113.298 286.072C107.382 287.613 101.25 287.613 95.334 286.072C94.7794 285.918 94.5329 286.812 95.0875 286.966Z" fill="#E8E8E8"/>
<path d="M114.253 286.041C114.653 279.473 115.177 272.906 115.794 266.338C115.855 265.752 114.931 265.752 114.869 266.338C114.253 272.906 113.729 279.473 113.329 286.041C113.298 286.627 114.222 286.627 114.253 286.041Z" fill="#E8E8E8"/>
<path d="M91.9446 267.325C99.6169 268.897 107.505 268.836 115.177 267.109C115.763 266.986 115.516 266.092 114.931 266.215C107.443 267.88 99.7094 267.972 92.1911 266.431C91.6057 266.307 91.3592 267.202 91.9446 267.325Z" fill="#E8E8E8"/>
<path d="M91.8521 269.545C92.0986 270.809 93.7009 270.748 94.6869 270.84C97.1827 271.056 99.7093 271.118 102.205 271.056C104.609 270.994 107.012 270.809 109.415 270.532C111.326 270.285 113.174 270.038 114.869 269.083C115.393 268.805 114.931 268.003 114.407 268.281C111.356 269.977 107.135 269.915 103.715 270.069C102.02 270.131 100.295 270.162 98.6001 270.131C97.7065 270.1 92.9306 270.316 92.7457 269.298C92.6224 268.713 91.7597 268.959 91.8521 269.545Z" fill="#E8E8E8"/>
<path d="M93.6085 280.244C95.0875 282.865 96.9671 285.178 99.2164 287.182C99.6478 287.583 100.326 286.935 99.8635 286.534C97.645 284.592 95.827 282.341 94.4096 279.782C94.1323 279.258 93.3312 279.72 93.6085 280.244Z" fill="#E8E8E8"/>
<path d="M92.4067 273.122C95.5496 278.425 99.3703 283.297 103.746 287.675C104.177 288.107 104.824 287.428 104.393 287.028C100.079 282.711 96.3199 277.901 93.2078 272.659C92.8997 272.166 92.0986 272.628 92.4067 273.122Z" fill="#E8E8E8"/>
<path d="M97.5525 270.902C100.819 276.729 104.609 282.248 108.891 287.398C109.261 287.86 109.908 287.213 109.539 286.75C105.317 281.663 101.558 276.205 98.3536 270.439C98.0763 269.915 97.2752 270.378 97.5525 270.902Z" fill="#E8E8E8"/>
<path d="M103.438 271.118C106.611 275.866 109.816 280.583 113.051 285.301C113.39 285.794 114.191 285.332 113.852 284.838C110.617 280.121 107.412 275.403 104.239 270.655C103.9 270.162 103.099 270.624 103.438 271.118Z" fill="#E8E8E8"/>
<path d="M108.368 270.84C109.97 273.43 111.695 275.958 113.483 278.425C113.821 278.888 114.623 278.425 114.284 277.963C112.497 275.496 110.771 272.968 109.169 270.378C108.861 269.884 108.06 270.347 108.368 270.84Z" fill="#E8E8E8"/>
<path d="M81.7148 239.698C82.0845 241.826 82.4543 243.984 82.8548 246.112C82.9781 246.698 83.0705 247.314 83.5635 247.684C83.9025 247.962 85.0117 247.931 85.2274 248.239C85.2582 248.054 85.289 247.869 85.289 247.684C84.8268 248.147 84.3647 248.609 83.8717 249.041C83.7484 249.164 83.7176 249.349 83.7484 249.503C84.0257 250.336 84.2106 251.569 84.7652 252.278C85.0425 252.648 85.5355 252.587 85.7512 252.803C85.9361 252.988 85.8745 252.864 85.782 253.419C85.7204 253.882 85.7204 254.375 85.782 254.868C85.8745 255.608 86.0901 256.318 86.3675 256.996C87.9697 260.881 91.0818 264.026 94.0706 266.924C94.502 267.325 95.149 266.678 94.7177 266.277C92.8073 264.427 90.8969 262.515 89.3255 260.357C87.7848 258.229 85.9669 255.362 86.9221 252.648C86.9837 252.494 86.9221 252.278 86.7988 252.186C86.2134 251.723 85.628 251.908 85.2274 251.168C84.4571 249.781 84.8885 249.318 85.8745 248.363C86.0285 248.239 86.0593 247.962 85.9361 247.808C85.6896 247.438 85.5047 247.314 85.1042 247.191C84.8577 247.098 84.4879 247.191 84.2414 247.068C83.7176 246.79 83.7176 246.112 83.6251 245.618C83.2554 243.583 82.8856 241.518 82.5467 239.483C82.4851 238.866 81.5915 239.113 81.7148 239.698Z" fill="#E8E8E8"/>
<path d="M82.3927 239.575C94.4096 243.583 102.637 254.807 102.883 267.51C102.883 268.096 103.807 268.096 103.807 267.51C103.561 254.406 95.0566 242.843 82.6392 238.681C82.0846 238.496 81.8381 239.39 82.3927 239.575Z" fill="#E8E8E8"/>
<path d="M100.849 254.868C103.838 246.574 108.244 238.558 115.3 233.1C115.763 232.73 115.3 231.928 114.838 232.298C107.567 237.941 103.037 246.081 99.9558 254.622C99.7709 255.177 100.665 255.423 100.849 254.868Z" fill="#E8E8E8"/>
<path d="M114.499 232.915C114.715 235.752 114.961 238.588 115.177 241.456C115.239 242.042 116.163 242.042 116.102 241.456C115.886 238.619 115.639 235.782 115.424 232.915C115.393 232.329 114.468 232.329 114.499 232.915Z" fill="#E8E8E8"/>
<path d="M115.578 241.148C115.177 241.24 114.777 241.333 114.407 241.456C113.821 241.61 114.068 242.504 114.653 242.35C115.054 242.258 115.455 242.165 115.824 242.042C116.41 241.888 116.163 241.024 115.578 241.148Z" fill="#E8E8E8"/>
<path d="M113.945 242.288C114.068 242.874 114.561 243.244 115.116 243.306C115.362 243.337 115.578 243.09 115.578 242.843C115.578 242.566 115.362 242.412 115.116 242.381C115.208 242.381 115.116 242.381 115.085 242.381C115.054 242.381 114.992 242.35 115.054 242.381C115.023 242.35 114.992 242.35 114.961 242.319C114.9 242.288 115.023 242.381 114.931 242.288C114.9 242.258 114.9 242.258 114.869 242.227C114.931 242.288 114.869 242.227 114.869 242.196C114.838 242.165 114.838 242.103 114.838 242.165C114.838 242.134 114.807 242.073 114.807 242.042C114.746 241.795 114.468 241.641 114.253 241.733C114.006 241.795 113.883 242.042 113.945 242.288Z" fill="#E8E8E8"/>
<path d="M114.653 242.967C114.684 244.724 114.623 246.451 114.438 248.178C114.376 248.733 114.469 250.028 114.099 250.459C114.068 250.49 113.513 250.583 113.39 250.675C112.928 251.045 113.575 251.693 114.037 251.323C114.191 251.199 114.561 251.323 114.807 251.045C115.177 250.675 115.116 249.812 115.177 249.38C115.455 247.253 115.578 245.094 115.547 242.936C115.578 242.381 114.653 242.381 114.653 242.967Z" fill="#E8E8E8"/>
<path d="M113.02 251.477C114.006 252.648 113.729 254.591 113.637 256.009C113.513 257.643 113.236 259.154 112.435 260.573C111.295 262.669 109.693 264.427 108.861 266.708C108.645 267.263 109.539 267.51 109.754 266.955C110.864 263.964 113.421 261.744 114.191 258.599C114.746 256.348 115.27 252.741 113.667 250.829C113.298 250.398 112.651 251.045 113.02 251.477Z" fill="#E8E8E8"/>
<path d="M105.749 267.14C106.611 258.383 108.922 249.843 112.62 241.888C112.866 241.363 112.065 240.87 111.819 241.425C108.06 249.565 105.687 258.229 104.824 267.171C104.763 267.757 105.687 267.726 105.749 267.14Z" fill="#E8E8E8"/>
<path d="M87.5693 244.724C92.9615 251.508 96.9055 259.308 99.2164 267.633C99.3705 268.219 100.264 267.973 100.11 267.387C97.7374 258.877 93.701 250.983 88.2163 244.077C87.8466 243.614 87.1995 244.262 87.5693 244.724Z" fill="#E8E8E8"/>
<path d="M88.1546 256.102C90.7428 255.948 93.1462 256.564 95.3339 257.921C95.8269 258.229 96.3199 257.428 95.7961 257.119C93.4851 255.701 90.8661 255.023 88.1546 255.177C87.5383 255.208 87.5383 256.133 88.1546 256.102Z" fill="#E8E8E8"/>
<path d="M93.7933 251.97C93.6084 250.274 93.8241 248.64 94.4712 247.037C94.6869 246.482 93.7933 246.235 93.5776 246.79C92.8997 248.455 92.684 250.182 92.8689 251.97C92.9305 252.556 93.8549 252.556 93.7933 251.97Z" fill="#E8E8E8"/>
<path d="M103.777 246.852C104.793 249.349 106.272 252.001 106.642 254.652C106.735 255.238 107.628 254.992 107.536 254.406C107.135 251.723 105.656 249.072 104.67 246.605C104.454 246.05 103.561 246.297 103.777 246.852Z" fill="#E8E8E8"/>
<path d="M109.446 249.781C110.34 248.763 111.202 247.561 112.342 246.79C113.298 246.142 114.345 245.711 115.085 244.817C115.455 244.354 114.807 243.707 114.438 244.169C113.637 245.125 112.466 245.526 111.511 246.266C110.463 247.067 109.662 248.147 108.799 249.133C108.398 249.596 109.046 250.243 109.446 249.781Z" fill="#E8E8E8"/>
<path d="M109.754 266.832C111.233 266.431 112.743 266.277 114.284 266.369C114.869 266.4 114.869 265.475 114.284 265.444C112.651 265.352 111.079 265.506 109.508 265.938C108.953 266.092 109.169 266.986 109.754 266.832Z" fill="#E8E8E8"/>
<path d="M109.631 267.202C111.356 267.356 113.02 267.14 114.684 266.616C115.239 266.431 114.992 265.537 114.438 265.722C112.866 266.215 111.264 266.4 109.631 266.277C109.046 266.246 109.046 267.171 109.631 267.202Z" fill="#E8E8E8"/>
<path d="M92.3452 267.048C92.7458 267.048 93.1155 267.048 93.5161 267.048C94.1015 267.048 94.1015 266.123 93.5161 266.123C93.1155 266.123 92.7458 266.123 92.3452 266.123C91.7598 266.123 91.7598 267.048 92.3452 267.048Z" fill="#E8E8E8"/>
<path d="M114.931 274.509C124.698 274.509 134.497 274.509 144.264 274.509C144.85 274.509 144.85 273.584 144.264 273.584C134.497 273.584 124.698 273.584 114.931 273.584C114.345 273.584 114.345 274.509 114.931 274.509Z" fill="#E8E8E8"/>
<path d="M280.271 268.404C286.094 268.404 291.887 268.404 297.711 268.404C298.296 268.404 298.296 267.479 297.711 267.479C291.887 267.479 286.094 267.479 280.271 267.479C279.685 267.479 279.685 268.404 280.271 268.404Z" fill="#E8E8E8"/>
<path d="M333.11 268.959C356.253 268.959 379.395 268.959 402.538 268.959C409.125 268.959 415.713 268.959 422.301 268.959C422.841 268.959 422.841 268.034 422.301 268.034C399.159 268.034 376.016 268.034 352.874 268.034C346.286 268.034 339.698 268.034 333.11 268.034C332.571 268.034 332.571 268.959 333.11 268.959Z" fill="#E8E8E8"/>
<path d="M295.954 167.733C293.612 172.574 291.086 177.322 288.405 181.978C288.282 182.225 288.374 182.626 288.682 182.657C301.901 184.661 313.733 191.228 325.133 197.857C325.657 198.166 326.119 197.364 325.596 197.056C314.103 190.396 302.209 183.797 288.898 181.762C288.99 181.978 289.083 182.225 289.175 182.441C291.887 177.785 294.383 173.037 296.724 168.196C297.002 167.672 296.231 167.178 295.954 167.733Z" fill="#E8E8E8"/>
<path d="M297.988 184.538C298.912 181.886 299.836 179.203 300.761 176.552C301.161 175.442 301.439 174.208 301.963 173.129C302.086 172.482 302.486 171.988 303.103 171.618C303.472 171.711 303.842 171.803 304.212 171.896C304.766 172.05 305.321 172.173 305.845 172.328C307.108 172.636 309.142 172.636 308.926 174.332C308.772 175.534 308.063 176.829 307.663 178.001C306.738 180.622 305.845 183.242 304.921 185.863C304.736 186.418 305.629 186.665 305.814 186.11C307.016 182.657 308.217 179.173 309.419 175.719C309.696 174.918 310.467 173.561 309.851 172.698C309.173 171.773 307.139 171.711 306.091 171.433C305.075 171.187 303.287 170.262 302.24 170.755C301.346 171.156 301.161 172.698 300.884 173.468C299.621 177.076 298.357 180.714 297.094 184.322C296.909 184.846 297.803 185.093 297.988 184.538Z" fill="#E8E8E8"/>
<path d="M309.881 187.837C311.853 183.674 313.856 179.481 315.828 175.318C316.814 173.222 317.8 171.156 318.817 169.059C319.279 168.103 319.649 166.962 320.234 166.068C320.727 165.297 320.851 165.112 321.713 165.452C322.176 165.637 322.73 166.099 323.131 166.377C323.655 166.747 324.487 167.147 324.856 167.641C325.319 168.227 325.134 168.843 324.856 169.583C324.487 170.57 323.932 171.526 323.47 172.482C322.453 174.578 321.436 176.675 320.358 178.772C318.324 182.749 316.198 186.696 314.01 190.612C313.702 191.136 314.503 191.598 314.811 191.074C317.492 186.326 320.05 181.516 322.453 176.644C323.655 174.239 324.98 171.772 325.996 169.275C326.705 167.456 325.164 166.716 323.809 165.76C322.73 165.02 321.036 163.324 319.865 164.712C319.125 165.575 318.725 167.024 318.232 168.072C317.615 169.337 317.03 170.601 316.414 171.896C313.949 177.076 311.484 182.256 309.05 187.436C308.834 187.898 309.635 188.392 309.881 187.837Z" fill="#E8E8E8"/>
<path d="M320.111 194.25C322.761 190.088 325.75 186.141 329.047 182.503C328.862 182.533 328.677 182.564 328.492 182.564C329.663 183.366 330.803 184.137 331.974 184.938C331.912 184.723 331.851 184.507 331.82 184.291C329.201 188.392 326.582 192.462 323.963 196.563C323.655 197.056 324.425 197.518 324.764 197.025C327.383 192.924 330.002 188.854 332.621 184.753C332.775 184.538 332.652 184.26 332.467 184.106C331.296 183.304 330.156 182.533 328.985 181.732C328.831 181.608 328.554 181.67 328.43 181.793C325.072 185.524 322.022 189.502 319.341 193.726C319.002 194.312 319.803 194.774 320.111 194.25Z" fill="#E8E8E8"/>
<path d="M356.87 164.928C353.789 163.756 351.848 160.672 352.403 157.373C352.957 154.012 356.254 151.022 359.644 153.026C361.985 154.413 363.187 157.558 362.294 160.117C361.369 162.862 358.35 164.496 355.546 164.064C354.96 163.972 354.714 164.866 355.299 164.958C358.596 165.452 362.078 163.632 363.187 160.364C364.296 157.096 362.509 153.149 359.305 151.823C355.546 150.282 352.125 153.519 351.478 157.127C350.8 160.95 353.05 164.465 356.593 165.822C357.179 166.038 357.425 165.143 356.87 164.928Z" fill="#E8E8E8"/>
<path d="M363.187 164.342C357.055 164.157 359.366 154.321 364.789 154.691C370.212 155.092 367.994 166.161 362.047 164.126C361.492 163.941 361.246 164.835 361.8 165.02C368.672 167.363 371.753 154.845 365.19 153.797C361.985 153.273 359.089 156.294 358.596 159.285C358.103 162.245 360.106 165.143 363.187 165.236C363.772 165.298 363.772 164.373 363.187 164.342Z" fill="#E8E8E8"/>
<path d="M358.596 136.437C358.072 135.882 357.826 134.988 358.226 134.31C358.627 133.663 359.613 133.354 360.229 133.848C360.784 134.279 360.907 135.204 360.383 135.667C359.767 136.222 358.781 135.944 358.195 135.482C357.733 135.112 357.086 135.759 357.548 136.129C358.504 136.869 359.983 137.239 360.999 136.345C361.924 135.512 361.831 133.971 360.907 133.169C359.952 132.337 358.442 132.583 357.641 133.508C356.747 134.557 356.994 136.129 357.918 137.085C358.349 137.517 358.997 136.869 358.596 136.437Z" fill="#E8E8E8"/>
<path d="M269.178 159.655C268.315 154.413 271.366 148.093 277.282 148.154C280.301 148.185 283.229 149.418 286.279 148.987C288.436 148.678 290.285 147.445 291.579 145.749C292.873 144.053 293.612 141.926 293.736 139.798C293.89 136.653 292.688 133.447 293.551 130.333C293.982 128.76 294.907 127.311 296.478 126.725C297.988 126.201 299.621 126.509 301.192 126.448C303.472 126.355 305.26 125.368 306.4 123.364C308.002 120.558 307.632 117.198 308.741 114.238C310.066 110.661 313.795 107.608 317.739 109.366C318.262 109.613 318.755 108.811 318.201 108.564C312.839 106.159 308.372 111 307.324 115.872C306.646 119.048 306.769 123.981 302.979 125.245C300.33 126.139 297.341 124.752 294.907 126.571C292.904 128.051 292.318 130.764 292.349 133.138C292.442 136.623 293.52 140.014 291.979 143.344C290.562 146.489 287.758 148.37 284.276 148.154C281.195 147.969 278.145 146.705 275.033 147.507C269.764 148.833 267.514 155.061 268.346 159.933C268.408 160.457 269.301 160.21 269.178 159.655Z" fill="#E8E8E8"/>
<path d="M308.125 137.671C306.985 135.081 308.556 132.614 311.052 131.782C312.87 131.165 314.873 131.134 316.445 129.901C317.677 128.945 318.078 127.742 317.924 126.201C317.769 124.752 317.769 123.611 318.91 122.624C319.865 121.792 321.128 121.483 322.361 121.422C325.75 121.298 330.403 123.025 332.868 119.726C334.008 118.184 333.669 116.273 334.193 114.546C334.901 112.141 337.212 110.661 339.677 110.784C340.263 110.815 340.263 109.89 339.677 109.859C337.798 109.767 335.98 110.476 334.686 111.833C333.083 113.528 333.299 115.44 332.806 117.568C331.481 123.395 323.377 119.294 319.557 121.113C318.139 121.792 316.999 122.994 316.876 124.598C316.722 126.478 317.585 128.02 315.674 129.315C314.657 129.993 313.487 130.209 312.316 130.487C310.374 130.949 308.464 131.535 307.478 133.416C306.677 134.896 306.677 136.592 307.355 138.102C307.57 138.688 308.341 138.195 308.125 137.671Z" fill="#E8E8E8"/>
<path d="M363.033 96.6008C362.91 96.3233 362.786 96.015 362.694 95.7067C363.095 95.2442 363.464 94.7817 363.865 94.3192C363.988 94.2883 364.543 94.6584 364.728 94.6584C365.19 94.72 365.59 94.5967 365.96 94.3192C367.1 93.425 366.7 92.0067 367.039 90.8042C367.593 88.7383 370.027 90.1567 371.137 88.615C372.246 87.1042 371.845 83.8975 374.803 84.7608C375.389 84.915 375.635 84.0208 375.05 83.8667C373.355 83.3733 371.814 84.175 371.198 85.8092C371.013 86.2717 370.952 86.7958 370.767 87.2583C370.366 88.3375 369.935 88.4917 368.764 88.5533C367.901 88.615 367.223 88.5533 366.638 89.2933C366.145 89.9408 366.145 90.7733 366.053 91.5442C365.96 92.685 366.053 93.6408 364.358 93.5175C364.019 93.4867 363.742 93.1784 363.372 93.1784C361.338 93.1475 361.677 95.645 362.17 96.8475C362.355 97.4025 363.279 97.1559 363.033 96.6008Z" fill="#E8E8E8"/>
<path d="M368.826 99.16C368.333 98.5125 367.501 96.6317 368.949 96.1383C369.473 95.9533 370.151 96.1692 370.705 96.1692C371.198 96.1692 371.63 96.1692 372.03 95.83C373.263 94.8433 372.369 93.0858 373.016 91.8525C374.064 89.8484 376.159 91.4209 377.638 90.3725C378.686 89.6325 378.963 88.2142 379.148 87.0425C379.24 86.4567 378.347 86.21 378.254 86.7959C378.039 88.1834 377.792 89.725 376.067 89.8792C375.173 89.9717 374.495 89.6634 373.663 90.0642C372.307 90.7117 371.876 91.9142 371.845 93.3017C371.815 94.4734 372.092 95.0592 370.12 95.1517C369.873 95.1517 369.627 95.09 369.38 95.09C368.672 95.1517 368.055 95.5217 367.655 96.1075C366.792 97.3409 367.285 98.7592 368.148 99.8383C368.548 100.301 369.195 99.6225 368.826 99.16Z" fill="#E8E8E8"/>
<path d="M106.858 115.872C109.415 112.788 113.051 110.26 117.242 110.692C121.802 111.154 124.051 114.792 124.483 119.047C125.222 126.108 123.497 134.557 128.273 140.569C130.152 142.943 132.956 144.207 135.976 143.467C139.612 142.604 142.446 139.737 145.682 138.041C149.502 136.037 154.771 134.957 158.222 138.318C160.749 140.785 161.304 144.547 162.135 147.815C162.906 150.775 164.231 154.043 166.881 155.801C168.483 156.849 170.239 156.942 172.088 156.818C174.152 156.664 178.374 156.541 177.942 159.778C177.881 160.364 178.805 160.364 178.867 159.778C179.021 158.514 178.435 157.497 177.418 156.757C175.816 155.585 173.967 155.77 172.088 155.893C169.962 156.047 168.144 155.862 166.511 154.352C165.032 152.995 164.138 151.083 163.491 149.202C162.413 145.965 162.105 142.419 160.256 139.459C158.438 136.53 155.295 135.112 151.906 135.235C147.623 135.389 144.018 137.856 140.598 140.137C138.964 141.217 137.208 142.357 135.205 142.697C132.802 143.097 130.676 142.049 129.135 140.261C126.239 136.869 125.777 132.028 125.623 127.773C125.469 123.796 125.992 119.479 124.667 115.625C123.466 112.11 120.415 109.921 116.749 109.736C112.497 109.52 108.768 112.079 106.149 115.224C105.81 115.687 106.457 116.334 106.858 115.872Z" fill="#E8E8E8"/>
<path d="M91.2975 163.448C96.1042 171.464 100.387 179.758 104.177 188.299C104.424 188.854 105.225 188.361 104.978 187.837C101.188 179.296 96.8745 171.002 92.0986 162.985C91.7905 162.461 90.9893 162.923 91.2975 163.448Z" fill="#E8E8E8"/>
<path d="M91.8829 163.078C99.3704 158.422 107.073 154.074 114.992 150.128C115.516 149.85 115.054 149.048 114.53 149.326C106.642 153.273 98.939 157.62 91.4207 162.276C90.8969 162.615 91.3591 163.417 91.8829 163.078Z" fill="#E8E8E8"/>
<path d="M114.438 149.727C118.351 157.959 122.48 166.068 126.855 174.054C127.132 174.578 127.934 174.116 127.656 173.592C123.281 165.606 119.121 157.497 115.239 149.264C114.962 148.709 114.191 149.172 114.438 149.727Z" fill="#E8E8E8"/>
<path d="M105.225 188.484C112.589 184.044 119.861 179.481 127.071 174.794C127.564 174.486 127.102 173.684 126.609 173.993C119.398 178.679 112.127 183.243 104.763 187.683C104.27 187.991 104.732 188.792 105.225 188.484Z" fill="#E8E8E8"/>
<path d="M104.639 160.364C104.455 166.284 104.793 172.173 105.656 178.032C105.749 178.618 106.642 178.371 106.55 177.785C105.687 172.019 105.379 166.192 105.564 160.364C105.595 159.778 104.67 159.778 104.639 160.364Z" fill="#E8E8E8"/>
<path d="M104.67 160.056C108.953 163.417 113.236 166.716 117.581 169.984C118.043 170.354 118.505 169.553 118.043 169.183C113.76 165.976 109.508 162.708 105.317 159.408C104.855 159.038 104.208 159.686 104.67 160.056Z" fill="#E8E8E8"/>
<path d="M106.611 178.217C110.155 175.041 114.777 173.345 118.135 169.923C118.567 169.491 117.889 168.843 117.488 169.275C114.13 172.667 109.539 174.393 105.964 177.569C105.502 177.939 106.18 178.587 106.611 178.217Z" fill="#E8E8E8"/>
<path d="M92.53 168.288C93.516 167.795 94.502 167.333 95.488 166.839C96.0118 166.593 95.5497 165.791 95.0258 166.038C94.0398 166.531 93.0538 166.993 92.0678 167.487C91.544 167.764 92.0062 168.535 92.53 168.288Z" fill="#E8E8E8"/>
<path d="M95.7037 173.53C96.5356 172.975 97.4292 172.512 98.3536 172.112C98.9082 171.896 98.6617 171.002 98.1071 171.217C97.0903 171.649 96.1351 172.142 95.2107 172.728C94.7485 173.067 95.2107 173.869 95.7037 173.53Z" fill="#E8E8E8"/>
<path d="M99.1855 179.573C100.048 179.142 100.911 178.71 101.774 178.309C102.298 178.032 101.835 177.261 101.312 177.508C100.449 177.939 99.5861 178.371 98.7233 178.772C98.1995 179.018 98.6617 179.82 99.1855 179.573Z" fill="#E8E8E8"/>
<path d="M100.973 185.617C101.928 184.784 102.914 184.075 104.023 183.458C104.547 183.15 104.085 182.379 103.561 182.657C102.421 183.304 101.342 184.075 100.326 184.969C99.8634 185.37 100.511 186.017 100.973 185.617Z" fill="#E8E8E8"/>
<path d="M116.194 155.801C116.903 155.308 117.642 154.968 118.474 154.753C119.06 154.598 118.813 153.735 118.228 153.858C117.334 154.074 116.471 154.444 115.701 154.999C115.239 155.338 115.701 156.14 116.194 155.801Z" fill="#E8E8E8"/>
<path d="M118.936 161.073C119.922 160.457 120.908 159.84 121.864 159.193C122.357 158.884 121.894 158.083 121.401 158.391C120.415 159.008 119.429 159.624 118.474 160.272C117.95 160.611 118.413 161.413 118.936 161.073Z" fill="#E8E8E8"/>
<path d="M122.079 167.394C123.127 166.932 124.205 166.469 125.253 166.007C125.808 165.76 125.315 164.958 124.791 165.205C123.743 165.668 122.665 166.13 121.617 166.593C121.062 166.839 121.555 167.641 122.079 167.394Z" fill="#E8E8E8"/>
<path d="M124.329 171.526C125.16 170.724 126.085 170.046 127.102 169.46C127.625 169.183 127.163 168.381 126.639 168.658C125.561 169.275 124.575 169.984 123.681 170.848C123.25 171.279 123.897 171.927 124.329 171.526Z" fill="#E8E8E8"/>
<path d="M107.844 184.414C108.614 185.555 109.261 186.758 109.754 188.022C109.97 188.577 110.863 188.33 110.648 187.775C110.124 186.418 109.477 185.123 108.645 183.921C108.306 183.458 107.505 183.921 107.844 184.414Z" fill="#E8E8E8"/>
<path d="M112.558 181.855C113.144 182.903 113.698 183.921 114.284 184.969C114.561 185.493 115.362 185.031 115.085 184.507C114.499 183.458 113.945 182.441 113.359 181.393C113.082 180.868 112.281 181.331 112.558 181.855Z" fill="#E8E8E8"/>
<path d="M118.012 177.939C118.628 179.049 119.244 180.159 119.861 181.269C120.138 181.793 120.939 181.331 120.662 180.807C120.046 179.697 119.429 178.587 118.813 177.477C118.536 176.953 117.735 177.415 118.012 177.939Z" fill="#E8E8E8"/>
<path d="M122.911 175.01C123.404 176.182 123.897 177.353 124.421 178.494C124.667 179.049 125.438 178.556 125.222 178.032C124.729 176.86 124.236 175.688 123.712 174.548C123.466 174.023 122.665 174.486 122.911 175.01Z" fill="#E8E8E8"/>
<path d="M94.9642 158.329C95.5496 159.285 96.1043 160.241 96.6897 161.166C96.9978 161.69 97.799 161.197 97.4908 160.703C96.9054 159.748 96.3508 158.792 95.7653 157.867C95.4572 157.373 94.6561 157.836 94.9642 158.329Z" fill="#E8E8E8"/>
<path d="M100.264 155.246C100.819 156.479 101.373 157.712 101.928 158.946C102.174 159.501 102.975 159.007 102.729 158.483C102.174 157.25 101.62 156.017 101.065 154.783C100.788 154.228 100.017 154.691 100.264 155.246Z" fill="#E8E8E8"/>
<path d="M105.04 152.286C105.872 153.396 106.519 154.598 106.95 155.893C107.135 156.448 108.029 156.202 107.844 155.647C107.382 154.259 106.735 152.964 105.841 151.823C105.502 151.361 104.701 151.793 105.04 152.286Z" fill="#E8E8E8"/>
<path d="M110.186 149.912C110.833 150.898 111.449 151.854 112.096 152.841C112.404 153.334 113.205 152.872 112.897 152.378C112.25 151.392 111.634 150.436 110.987 149.449C110.648 148.956 109.847 149.418 110.186 149.912Z" fill="#E8E8E8"/>
<path d="M158.099 88.7692C155.11 87.8442 154.956 84.6683 156.374 82.2942C157.76 79.9817 160.441 79.365 162.536 81.2767C164.262 82.88 164.416 85.6242 162.813 87.3817C161.211 89.17 158.592 89.1392 156.743 87.7825C156.281 87.4125 155.819 88.2142 156.281 88.5842C158.623 90.3108 162.043 90.0334 163.799 87.5975C165.617 85.1309 164.97 81.6775 162.413 80.0125C156.25 76.035 150.951 87.505 157.853 89.6633C158.438 89.8483 158.684 88.9542 158.099 88.7692Z" fill="#E8E8E8"/>
<path d="M163.06 89.5709C160.749 90.28 160.194 87.505 161.211 86.025C162.043 84.8225 163.676 84.1134 165.155 84.5142C166.572 84.8842 167.589 86.3334 167.22 87.7825C166.757 89.6017 164.847 90.2492 163.152 89.9717C162.567 89.8792 162.32 90.7734 162.906 90.8659C165.186 91.2667 167.651 90.28 168.144 87.8134C168.575 85.6859 166.911 83.7434 164.847 83.4967C162.567 83.2192 160.071 84.8842 159.763 87.2275C159.486 89.2625 161.334 91.0817 163.368 90.4342C163.892 90.28 163.645 89.3859 163.06 89.5709Z" fill="#E8E8E8"/>
<path d="M143.401 109.643C142.662 111.154 143.71 112.665 145.25 113.066C146.421 113.374 147.654 113.097 148.855 113.158C150.149 113.22 151.443 113.528 152.614 114.053C155.203 115.224 156.866 117.352 156.959 120.219C157.051 122.624 156.343 125.122 157.39 127.403C159.609 132.213 165.71 128.544 168.853 131.658C171.472 134.279 170.393 139.058 173.906 141.062C174.43 141.371 174.892 140.569 174.368 140.261C171.225 138.472 171.965 133.817 169.746 131.227C168.575 129.87 166.881 129.5 165.155 129.377C163.06 129.253 160.348 129.685 158.808 127.897C157.021 125.8 157.976 122.655 157.883 120.188C157.822 118.246 157.175 116.488 155.819 115.101C154.617 113.898 153.046 113.066 151.413 112.634C150.581 112.418 149.718 112.264 148.855 112.233C147.746 112.172 142.939 112.727 144.233 110.106C144.48 109.582 143.679 109.119 143.401 109.643Z" fill="#E8E8E8"/>
<path d="M71.3618 276.082C76.9389 276.082 82.4851 276.082 88.0622 276.082C88.6476 276.082 88.6476 275.157 88.0622 275.157C82.4851 275.157 76.9389 275.157 71.3618 275.157C70.7456 275.157 70.7456 276.082 71.3618 276.082Z" fill="#E8E8E8"/>
<path d="M80.3592 296.987C91.0819 296.987 101.774 296.987 112.497 296.987C113.082 296.987 113.082 296.062 112.497 296.062C101.774 296.062 91.0819 296.062 80.3592 296.062C79.7429 296.062 79.7429 296.987 80.3592 296.987Z" fill="#E8E8E8"/>
<path d="M111.202 291.19C121.155 291.19 131.138 291.19 141.091 291.19C141.676 291.19 141.676 290.265 141.091 290.265C131.138 290.265 121.155 290.265 111.202 290.265C110.586 290.265 110.586 291.19 111.202 291.19Z" fill="#E8E8E8"/>
<path d="M276.943 289.587C281.965 288.353 287.019 288.23 292.133 289.032C294.29 289.371 296.478 289.71 298.666 289.525C300.792 289.34 302.856 288.693 304.921 288.138C307.262 287.49 309.604 286.997 312.069 287.182C314.596 287.367 317.03 288.076 319.495 288.631C321.621 289.124 323.778 289.463 325.966 289.433C328.276 289.371 330.557 288.97 332.806 288.631C338.968 287.644 344.761 288.261 350.862 289.278C351.447 289.371 351.694 288.477 351.108 288.384C346.178 287.583 341.218 286.75 336.195 287.243C330.957 287.768 326.089 289.063 320.789 287.983C316.352 287.089 312.131 285.702 307.57 286.565C305.136 287.028 302.825 287.891 300.391 288.353C297.68 288.878 295.061 288.569 292.349 288.138C287.08 287.336 281.873 287.398 276.666 288.693C276.142 288.847 276.388 289.741 276.943 289.587Z" fill="#E8E8E8"/>
<path d="M324.271 280.213C333.946 279.689 343.621 279.165 353.296 278.672C358.072 278.425 362.694 278.518 367.439 279.165C369.565 279.443 371.599 279.504 373.725 279.258C376.098 278.98 378.563 278.61 380.781 279.751C381.305 280.028 381.767 279.227 381.243 278.949C377.484 277.037 373.14 278.826 369.103 278.456C366.7 278.24 364.358 277.777 361.955 277.654C359.459 277.531 356.963 277.592 354.467 277.716C344.391 278.178 334.316 278.795 324.24 279.319C323.685 279.319 323.685 280.244 324.271 280.213Z" fill="#E8E8E8"/>
<path d="M134.805 306.699C139.365 307.131 143.956 307.563 148.516 307.038C150.642 306.792 152.676 306.329 154.74 305.713C157.421 304.911 159.824 304.695 162.598 305.188C164.724 305.558 166.819 306.083 168.945 306.268C171.194 306.453 173.444 306.329 175.693 306.113C180.407 305.651 185.122 304.849 189.805 305.898C190.39 306.021 190.637 305.127 190.052 305.003C185.553 304.017 181.054 304.664 176.525 305.127C174.276 305.343 172.026 305.558 169.777 305.435C167.219 305.312 164.754 304.633 162.259 304.233C160.163 303.893 158.161 303.893 156.096 304.387C153.878 304.942 151.782 305.682 149.502 306.021C144.634 306.73 139.673 306.237 134.805 305.805C134.188 305.713 134.219 306.638 134.805 306.699Z" fill="#E8E8E8"/>
<path d="M183.55 57.905C182.348 57.0725 180.715 55.7467 181.208 54.0817C181.732 52.355 183.026 53.1875 184.228 52.7867C185.83 52.2625 185.738 50.32 185.276 49.0559C184.813 47.8225 183.827 44.8317 186.385 45.8492C186.97 46.0959 187.402 46.4967 188.08 46.2809C188.696 46.0959 189.004 45.5409 189.158 44.955C189.281 44.4309 189.189 43.8759 189.158 43.3209C189.096 42.9509 189.066 42.55 189.066 42.18C188.942 41.2859 189.497 40.9159 190.668 41.07C190.699 41.6559 191.623 41.6559 191.592 41.07C191.531 40.2067 190.884 39.59 189.959 39.6209C188.881 39.6517 188.295 40.7 188.172 41.6867C188.08 42.365 188.634 43.9375 188.326 44.4925C187.956 44.7392 187.587 45.0167 187.186 45.2634C187.032 45.1709 186.878 45.0784 186.724 44.9859C186.447 44.8934 186.231 44.7084 185.954 44.6467C184.998 44.4309 184.228 45.0167 183.889 45.88C183.304 47.36 184.351 48.5934 184.659 49.9809C185.06 51.8925 183.612 51.6767 182.348 51.8925C181.794 51.985 181.332 52.2625 180.962 52.6634C179.021 54.9142 181.27 57.4117 183.119 58.7067C183.581 59.0459 184.043 58.2442 183.55 57.905Z" fill="#E8E8E8"/>
<path d="M189.62 57.0417C188.603 55.8701 187.833 54.2667 189.805 53.6501C190.298 53.4959 190.853 53.5576 191.315 53.2492C192.332 52.5401 191.9 51.5842 191.716 50.5976C191.623 50.0426 191.407 49.3026 191.746 48.7476C191.993 48.3467 192.886 48.1926 193.349 48.1001C193.996 47.9459 194.674 47.8534 195.228 47.4834C196.06 46.8976 196.368 45.8492 195.814 44.9551C195.505 44.4617 194.704 44.9242 195.012 45.4176C195.937 46.8976 191.623 47.2984 190.884 48.3776C190.021 49.6417 191.839 51.8617 190.329 52.6634C189.744 52.9717 189.004 52.7559 188.449 53.1567C188.049 53.4342 187.772 53.8659 187.648 54.3284C187.309 55.6542 188.203 56.7951 189.004 57.7201C189.374 58.1517 190.021 57.5042 189.62 57.0417Z" fill="#E8E8E8"/>
<path d="M153.231 49.7342C152.43 49.1792 152.337 48.1925 152.584 47.3292C152.738 46.7434 153.477 45.14 154.186 45.0784C155.357 44.955 155.942 46.435 156.25 47.2984C156.528 48.1309 156.62 48.9634 156.651 49.8267C156.651 50.4125 157.575 50.4125 157.575 49.8267C157.544 48.1 156.404 42.7967 153.57 44.3384C152.491 44.9242 151.69 46.62 151.567 47.7917C151.444 48.9017 151.875 49.8884 152.768 50.5359C153.231 50.875 153.693 50.0734 153.231 49.7342Z" fill="#E8E8E8"/>
<path d="M152.861 50.2275C151.752 50.505 150.642 50.7825 149.502 51.06C148.855 51.2142 147.746 51.2759 147.222 51.7692C146.329 52.6017 146.575 55.1609 146.575 56.24C146.575 56.5484 146.883 56.7642 147.161 56.6717C147.315 56.6409 147.469 56.5792 147.654 56.5484C148.455 56.1167 148.855 56.3942 148.886 57.3192C149.502 57.9359 149.502 58.3059 148.886 58.3675C148.516 58.5217 148.147 58.5834 147.746 58.5834C147.499 58.6142 147.284 58.7684 147.284 59.0459C147.345 61.0192 147.499 62.9617 147.715 64.935C147.777 65.5209 148.701 65.5209 148.64 64.935C148.424 62.9617 148.27 61.0192 148.208 59.0459C148.054 59.2 147.9 59.3542 147.746 59.5084C149.04 59.3542 151.105 58.83 150.827 57.0725C150.519 55.1917 148.239 55.4075 146.945 55.7775C147.13 55.9317 147.345 56.0859 147.53 56.2092C147.53 55.5 147.53 54.8217 147.592 54.1125C147.684 53.0025 147.623 52.6017 148.64 52.2009C150.026 51.6459 151.659 51.4609 153.107 51.0909C153.693 50.9984 153.446 50.1042 152.861 50.2275Z" fill="#E8E8E8"/>
<path d="M157.298 50.5051C158.592 50.4434 159.917 50.4434 161.211 50.5976C162.444 50.7517 162.382 50.9367 162.567 52.0159C162.69 52.6942 162.721 53.4034 162.783 54.0817C163.029 56.7334 163.214 59.3851 163.368 62.0367C163.399 62.6226 164.323 62.6226 164.292 62.0367C164.108 58.4292 163.984 54.7292 163.399 51.1526C163.245 50.2584 163.091 49.9809 162.166 49.8267C160.564 49.5184 158.9 49.5184 157.298 49.6109C156.713 49.6109 156.713 50.5359 157.298 50.5051Z" fill="#E8E8E8"/>
<path d="M148.393 65.5825C150.211 65.2742 152.029 64.9659 153.816 64.6575C155.88 64.3184 157.852 64.4725 159.917 64.3184C160.872 64.2259 165.402 63.7634 163.738 61.8825C163.337 61.4509 162.69 62.0984 163.091 62.53C163.337 62.8075 159.147 63.4242 159.054 63.4242C157.76 63.455 156.466 63.3934 155.172 63.5475C152.83 63.825 150.488 64.3184 148.147 64.7192C147.561 64.7809 147.808 65.675 148.393 65.5825Z" fill="#E8E8E8"/>
<path d="M312.069 243.152C311.976 246.389 311.884 249.627 311.792 252.895C315.89 253.172 319.957 253.419 324.055 253.697C324.055 250.367 324.055 247.037 324.055 243.707C320.049 243.522 316.075 243.337 312.069 243.152Z" fill="white" stroke="#161616" stroke-width="2" stroke-miterlimit="10"/>
<path d="M317.399 279.134C317.954 282.711 318.201 285.671 318.324 287.798C318.724 294.859 318.416 296.493 317.8 297.788C316.29 300.964 313.548 302.29 313.794 302.722C313.979 302.999 315.335 302.691 321.374 299.515C321.005 292.485 320.666 285.486 320.296 278.456C319.341 278.702 318.385 278.918 317.399 279.134Z" fill="white" stroke="#161616" stroke-width="2" stroke-miterlimit="10"/>
<path d="M309.419 256.472C314.657 256.503 319.895 256.564 325.133 256.595C324.548 263.625 323.993 270.624 323.408 277.654C318.848 277.284 314.257 276.945 309.696 276.575C309.573 269.884 309.481 263.193 309.419 256.472Z" fill="white" stroke="#161616" stroke-width="2" stroke-miterlimit="10"/>
<path d="M311.545 278.887C313.209 282.927 313.764 286.411 313.949 288.754C314.226 292.207 314.411 294.859 312.747 296.617C312.131 297.295 311.114 297.942 309.142 299.268C307.385 300.44 306.553 300.872 306.615 300.995C306.708 301.18 308.402 300.81 315.797 298.189C316.29 295.692 316.691 292.485 316.598 288.723C316.475 284.715 315.828 281.292 315.119 278.733C313.949 278.795 312.747 278.826 311.545 278.887Z" fill="white" stroke="#161616" stroke-width="2" stroke-miterlimit="10"/>
<path d="M314.226 302.999C315.15 302.228 316.013 301.396 316.845 300.502C317.8 299.453 319.217 297.85 320.696 299.237C320.727 298.991 320.758 298.744 320.789 298.497C318.601 299.577 316.444 300.656 314.257 301.704C313.825 301.92 314.041 302.567 314.503 302.567C316.567 302.598 317.862 298.991 319.988 299.669C320.542 299.854 320.789 298.96 320.234 298.775C319.31 298.497 318.601 298.744 317.831 299.299C316.937 299.947 315.674 301.642 314.534 301.642C314.626 301.92 314.688 302.228 314.78 302.506C316.968 301.427 319.125 300.347 321.313 299.299C321.59 299.176 321.621 298.775 321.405 298.559C320.573 297.788 319.094 297.511 318.046 298.004C317.276 298.343 316.783 299.237 316.229 299.823C315.397 300.717 314.534 301.519 313.609 302.321C313.116 302.722 313.764 303.4 314.226 302.999Z" fill="#161616"/>
<path d="M318.016 298.189C318.94 298.22 319.834 298.405 320.696 298.775C321.22 299.022 321.713 298.22 321.159 297.973C320.142 297.511 319.125 297.264 318.016 297.233C317.43 297.264 317.43 298.189 318.016 298.189Z" fill="#161616"/>
<path d="M312.962 297.11C313.671 297.295 314.287 297.665 314.78 298.22C315.181 298.652 315.828 298.004 315.427 297.572C314.811 296.925 314.041 296.462 313.178 296.247C312.654 296.062 312.408 296.956 312.962 297.11Z" fill="#161616"/>
<path d="M307.971 300.841C308.926 300.132 309.912 299.484 310.929 298.867C311.391 298.59 311.884 298.22 312.377 298.066C313.147 297.788 313.61 297.973 314.318 298.282C314.318 298.004 314.318 297.757 314.318 297.48C313.332 297.912 312.223 297.881 311.206 298.312C310.22 298.713 309.296 299.7 308.279 299.885C308.402 300.162 308.525 300.44 308.649 300.717C310.467 299.823 312.5 299.669 314.318 298.775C314.842 298.497 314.38 297.727 313.856 297.973C312.038 298.867 310.004 299.022 308.187 299.916C307.694 300.162 308.063 300.841 308.556 300.748C309.666 300.563 310.559 299.546 311.607 299.145C312.654 298.744 313.794 298.713 314.811 298.282C315.119 298.158 315.119 297.603 314.811 297.48C313.64 296.956 313.117 296.647 311.946 297.264C310.405 298.066 308.957 299.022 307.57 300.039C307.016 300.378 307.478 301.18 307.971 300.841Z" fill="#161616"/>
<path d="M313.24 283.605C314.01 283.327 314.78 283.358 315.489 283.728C316.013 284.006 316.475 283.204 315.951 282.927C315.027 282.433 313.979 282.341 312.993 282.711C312.439 282.927 312.685 283.821 313.24 283.605Z" fill="#161616"/>
<path d="M314.01 286.688C314.657 286.627 315.273 286.781 315.766 287.212C316.229 287.582 316.876 286.935 316.414 286.565C315.736 286.01 314.904 285.702 314.01 285.763C313.425 285.794 313.425 286.719 314.01 286.688Z" fill="#161616"/>
<path d="M314.349 290.542C314.935 290.481 315.489 290.697 315.828 291.19C316.136 291.683 316.937 291.221 316.629 290.727C316.167 289.957 315.274 289.494 314.38 289.617C314.133 289.648 313.918 289.802 313.918 290.08C313.887 290.296 314.103 290.573 314.349 290.542Z" fill="#161616"/>
<path d="M318.324 283.389C318.878 283.081 319.587 283.112 320.111 283.543C320.573 283.913 321.22 283.266 320.758 282.896C319.926 282.217 318.817 282.063 317.862 282.587C317.338 282.896 317.8 283.697 318.324 283.389Z" fill="#161616"/>
<path d="M318.848 289.217C319.341 289.001 319.895 289.093 320.296 289.463C320.727 289.864 321.405 289.217 320.943 288.816C320.234 288.168 319.248 288.014 318.355 288.446C317.831 288.662 318.324 289.463 318.848 289.217Z" fill="#161616"/>
<path d="M318.971 294.15C319.464 293.842 320.08 293.842 320.542 294.212C321.005 294.582 321.652 293.934 321.189 293.564C320.419 292.917 319.341 292.824 318.509 293.379C318.016 293.687 318.478 294.489 318.971 294.15Z" fill="#161616"/>
<path d="M325.873 256.564C325.257 263.656 324.64 270.747 324.024 277.839" stroke="#161616" stroke-width="6" stroke-miterlimit="10"/>
<path d="M309.604 276.852C314.75 277.222 319.895 277.562 325.041 277.932" stroke="#161616" stroke-width="6" stroke-miterlimit="10"/>
<path d="M325.072 243.429C324.949 246.944 324.795 250.428 324.671 253.943" stroke="#161616" stroke-width="6" stroke-miterlimit="10"/>
<path d="M325.719 260.727C328.584 260.202 331.635 262.453 331.851 265.413C332.159 269.113 327.937 269.761 325.164 269.36C324.579 269.267 324.332 270.162 324.918 270.254C328.307 270.747 333.083 269.792 332.775 265.413C332.528 261.806 328.923 259.185 325.472 259.832C324.887 259.925 325.133 260.819 325.719 260.727Z" fill="#161616"/>
<path d="M325.041 270.994C326.243 271.241 327.198 272.104 327.537 273.276C327.691 273.862 328.584 273.615 328.43 273.029C328.03 271.549 326.828 270.377 325.318 270.1C324.702 270.007 324.456 270.871 325.041 270.994Z" fill="#161616"/>
<path d="M324.579 270.686C325.318 271.765 325.657 272.967 325.534 274.293C325.503 274.879 326.428 274.879 326.458 274.293C326.551 272.844 326.181 271.426 325.349 270.223C325.041 269.73 324.24 270.192 324.579 270.686Z" fill="#161616"/>
<path d="M309.388 260.295C307.355 259 303.626 262.731 303.164 264.55C302.24 268.25 306.985 267.818 308.957 269.052C309.45 269.36 309.912 268.558 309.419 268.25C308.002 267.356 305.906 267.695 304.674 266.585C303.164 265.228 304.551 263.594 305.598 262.638C306.153 262.145 308.032 260.511 308.926 261.066C309.419 261.436 309.912 260.634 309.388 260.295Z" fill="#161616"/>
<path d="M308.895 268.62C308.094 268.928 307.355 269.391 306.738 270.038C306.276 270.532 305.691 271.303 306.153 271.981C306.492 272.474 307.293 272.012 306.954 271.518C306.738 271.21 307.539 270.532 307.755 270.347C308.156 269.977 308.618 269.699 309.142 269.514C309.696 269.298 309.481 268.404 308.895 268.62Z" fill="#161616"/>
<path d="M308.526 269.268C307.94 270.193 307.755 271.241 307.971 272.289C308.094 272.875 308.988 272.628 308.865 272.043C308.68 271.21 308.865 270.439 309.327 269.73C309.666 269.237 308.864 268.774 308.526 269.268Z" fill="#161616"/>
<path d="M311.453 259.709C311.299 261.96 311.329 264.242 311.483 266.492C311.545 267.078 312.469 267.078 312.408 266.492C312.223 264.242 312.223 261.96 312.377 259.709C312.439 259.123 311.514 259.123 311.453 259.709Z" fill="#161616"/>
<path d="M312.131 259.956C315.397 260.141 318.632 260.264 321.898 260.326C321.744 260.172 321.59 260.017 321.436 259.863C321.344 262.176 321.251 264.519 321.128 266.832C321.097 267.417 322.021 267.417 322.052 266.832C322.145 264.519 322.237 262.176 322.36 259.863C322.36 259.617 322.145 259.401 321.898 259.401C318.632 259.339 315.397 259.216 312.131 259.031C311.545 259 311.545 259.925 312.131 259.956Z" fill="#161616"/>
<path d="M311.761 266.893C313.117 267.263 314.626 267.171 315.982 267.263C317.646 267.356 319.341 267.479 321.005 267.572C321.59 267.602 321.59 266.677 321.005 266.647C319.526 266.554 318.047 266.462 316.568 266.369C315.089 266.277 313.425 266.369 311.977 265.999C311.453 265.845 311.206 266.739 311.761 266.893Z" fill="#161616"/>
<path d="M312.808 271.672C313.363 272.875 314.565 271.827 315.489 272.258C315.92 272.443 315.828 272.721 316.413 272.752C317.091 272.782 318.755 271.426 319.094 272.69C319.187 273.029 319.618 273.122 319.864 272.906C320.173 272.813 320.511 272.721 320.82 272.659C321.189 273.122 321.867 272.443 321.467 272.012C320.758 271.179 319.864 271.642 319.187 272.258C319.433 272.32 319.71 272.382 319.957 272.474C319.68 271.395 318.54 270.686 317.461 271.179C316.937 271.426 316.876 271.888 316.075 271.58C315.921 271.518 315.859 271.272 315.705 271.21C315.366 271.087 313.579 271.272 313.579 271.241C313.363 270.655 312.562 271.117 312.808 271.672Z" fill="#161616"/>
<path d="M314.441 247.407C314.503 247.067 314.904 246.975 315.181 247.098C315.582 247.252 315.797 247.715 315.982 248.054C316.229 248.578 317.03 248.116 316.783 247.592C316.444 246.913 315.92 246.204 315.089 246.112C314.411 246.05 313.702 246.451 313.579 247.129C313.425 247.746 314.318 247.992 314.441 247.407Z" fill="#161616"/>
<path d="M320.111 247.838C320.173 247.53 320.45 247.345 320.758 247.468C321.128 247.592 321.282 248.054 321.344 248.393C321.436 248.979 322.33 248.733 322.237 248.147C322.114 247.407 321.621 246.636 320.82 246.513C320.111 246.42 319.341 246.852 319.218 247.592C319.125 248.178 320.019 248.424 320.111 247.838Z" fill="#161616"/>
<path d="M314.904 249.349C315.951 251.199 318.447 251.477 319.803 249.812C320.173 249.349 319.526 248.702 319.156 249.164C318.17 250.367 316.475 250.274 315.705 248.887C315.427 248.363 314.626 248.825 314.904 249.349Z" fill="#161616"/>
<path d="M282.581 81.8008C278.699 80.2283 276.357 76.4666 274.94 72.705C273.43 68.7891 272.783 64.5341 272.999 60.3408C273.368 52.6016 276.665 44.77 282.766 39.8366C288.528 35.15 297.063 33.8241 303.472 38.0791C310.159 42.5191 311.36 51.6766 311.422 59.0458C311.484 67.2475 309.573 75.85 303.503 81.7391C303.072 82.14 303.719 82.8183 304.15 82.3866C309.912 76.775 312.1 68.7583 312.316 60.9266C312.531 53.2491 311.607 43.5366 305.29 38.2641C299.374 33.3308 290.593 33.5775 284.276 37.5858C277.282 42.0258 273.153 50.0733 272.259 58.1825C271.705 63.2083 272.321 68.4191 274.17 73.1675C275.741 77.1758 278.237 80.9991 282.366 82.6641C282.89 82.9108 283.105 82.0166 282.581 81.8008Z" fill="#161616"/>
<path d="M282.15 82.3867C281.102 83.8667 281.318 86.0558 282.859 87.1658C284.03 87.9983 285.755 88.1217 287.142 88.3067C288.806 88.5533 290.5 88.6458 292.195 88.6458C295.215 88.615 298.666 88.3992 301.47 87.2275C303.503 86.3642 305.044 84.3292 303.965 82.14C303.719 81.6158 302.918 82.0783 303.164 82.6025C305.475 87.32 294.537 87.7208 292.164 87.7208C289.976 87.7208 287.789 87.5358 285.663 87.135C284.646 86.95 283.506 86.765 282.859 85.8708C282.212 84.9458 282.335 83.7433 282.951 82.88C283.29 82.3558 282.489 81.8933 282.15 82.3867Z" fill="#161616"/>
<path d="M283.136 87.3817C283.136 88.9233 283.167 90.4958 283.352 92.0375C283.444 92.7467 283.598 93.3633 284.184 93.795C285.016 94.4117 286.402 94.3808 287.388 94.4733C289.052 94.5967 290.747 94.5967 292.411 94.535C293.982 94.4733 295.553 94.35 297.125 94.1958C298.049 94.1033 299.097 94.1342 299.806 93.425C301.377 91.8833 301.408 88.9542 301.007 87.0117C300.884 86.4258 299.99 86.6725 300.114 87.2583C300.329 88.3067 300.391 89.355 300.175 90.4342C299.867 91.945 299.436 92.9317 297.741 93.24C295.769 93.61 293.551 93.61 291.548 93.6408C289.576 93.6717 287.357 93.7642 285.416 93.3017C283.629 92.87 284.091 88.8617 284.091 87.3817C284.06 86.7958 283.136 86.7958 283.136 87.3817Z" fill="#161616"/>
<path d="M283.444 54.1741C287.142 56.4866 289.946 59.8783 291.517 63.9483C291.733 64.5033 292.626 64.2566 292.411 63.7016C290.747 59.385 287.82 55.8083 283.937 53.3725C283.413 53.0333 282.951 53.835 283.444 54.1741Z" fill="#161616"/>
<path d="M292.257 63.9483C294.075 60.125 296.724 56.8566 300.114 54.3283C300.576 53.9891 300.114 53.1566 299.652 53.5266C296.139 56.1475 293.366 59.5391 291.455 63.4858C291.209 64.01 292.01 64.4725 292.257 63.9483Z" fill="#161616"/>
<path d="M291.517 62.8691C291.979 69.2208 292.195 75.5724 292.103 81.9241C292.103 82.5099 293.027 82.5099 293.027 81.9241C293.119 75.5724 292.904 69.1899 292.441 62.8691C292.38 62.2524 291.455 62.2524 291.517 62.8691Z" fill="#161616"/>
<path d="M255.436 78.4092C259.534 77.0217 263.601 75.6342 267.699 74.2467C268.254 74.0617 268.007 73.1675 267.453 73.3525C263.354 74.74 259.287 76.1275 255.189 77.515C254.604 77.7 254.85 78.5942 255.436 78.4092Z" fill="#161616"/>
<path d="M260.119 72.2425C261.536 71.8416 262.954 71.41 264.371 71.0091C264.926 70.855 264.71 69.9608 264.125 70.115C262.707 70.5158 261.29 70.9475 259.873 71.3483C259.318 71.5333 259.534 72.4275 260.119 72.2425Z" fill="#161616"/>
<path d="M249.859 61.975C255.282 61.9133 260.674 62.0675 266.066 62.4066C266.651 62.4375 266.651 61.5125 266.066 61.4816C260.674 61.1425 255.251 61.0191 249.859 61.05C249.273 61.05 249.273 61.975 249.859 61.975Z" fill="#161616"/>
<path d="M261.321 57.7817C262.615 58.1208 263.94 58.275 265.265 58.3058C265.85 58.3058 265.85 57.3808 265.265 57.3808C264.002 57.35 262.769 57.1958 261.567 56.8875C260.982 56.7333 260.735 57.6275 261.321 57.7817Z" fill="#161616"/>
<path d="M259.318 29.0758C264.156 33.2383 268.562 37.8016 272.537 42.7966C272.906 43.2591 273.553 42.6116 273.184 42.1491C269.209 37.1541 264.803 32.56 259.965 28.4283C259.534 28.0275 258.856 28.675 259.318 29.0758Z" fill="#161616"/>
<path d="M272.845 37.8325C273.677 38.6958 274.478 39.5591 275.31 40.4533C275.71 40.885 276.357 40.2375 275.957 39.8058C275.125 38.9425 274.324 38.0791 273.492 37.185C273.091 36.7533 272.444 37.4008 272.845 37.8325Z" fill="#161616"/>
<path d="M254.08 39.5591C255.59 40.4533 257.13 41.2858 258.702 42.0566C259.225 42.3341 259.688 41.5325 259.164 41.255C257.592 40.4533 256.052 39.6208 254.542 38.7575C254.018 38.4491 253.556 39.2508 254.08 39.5591Z" fill="#161616"/>
<path d="M307.694 32.5292C312.254 27.9658 316.814 23.4025 321.374 18.8392C321.806 18.4075 321.128 17.76 320.727 18.1917C316.167 22.755 311.607 27.3183 307.047 31.8817C306.615 32.3133 307.262 32.9608 307.694 32.5292Z" fill="#161616"/>
<path d="M312.285 34.6566C313.456 33.7933 314.627 32.9608 315.797 32.0975C316.26 31.7583 315.828 30.9566 315.335 31.2958C314.164 32.1591 312.993 32.9916 311.823 33.855C311.33 34.1941 311.792 34.9958 312.285 34.6566Z" fill="#161616"/>
<path d="M293.458 26.4858C294.383 22.015 295.091 17.5133 295.523 12.9808C295.584 12.395 294.66 12.395 294.598 12.9808C294.167 17.4208 293.489 21.8608 292.565 26.2392C292.441 26.825 293.335 27.0717 293.458 26.4858Z" fill="#161616"/>
<path d="M319.372 54.8525C327.753 54.0817 336.103 53.3108 344.484 52.54C345.069 52.4783 345.069 51.5533 344.484 51.615C336.103 52.3858 327.753 53.1567 319.372 53.9275C318.786 53.9583 318.755 54.8833 319.372 54.8525Z" fill="#161616"/>
<path d="M284.153 83.4967C289.36 84.6375 294.66 84.6067 299.836 83.435C300.422 83.3117 300.175 82.4175 299.59 82.5408C294.568 83.6817 289.422 83.7125 284.399 82.6025C283.814 82.4791 283.567 83.3733 284.153 83.4967Z" fill="#161616"/>
<path d="M284.923 91.3283C288.898 91.8525 292.873 91.9758 296.878 91.6983C297.464 91.6675 297.464 90.7425 296.878 90.7733C292.873 91.0508 288.898 90.9275 284.923 90.4033C284.338 90.3417 284.338 91.2667 284.923 91.3283Z" fill="#161616"/>
<path d="M313.548 80.3825C319.803 84.7917 326.181 89.0467 332.652 93.1475C333.145 93.4559 333.607 92.6542 333.114 92.3459C326.643 88.245 320.265 83.99 314.01 79.5808C313.517 79.2417 313.055 80.0434 313.548 80.3825Z" fill="#161616"/>
<path d="M234.822 297.264C228.968 304.448 223.144 311.602 217.29 318.786C224.161 342.959 228.043 349.311 230.354 348.972C232.018 348.725 232.819 345.118 233.713 341.078C235.931 330.996 234.606 322.332 233.251 316.936C236.948 312.804 240.615 308.642 244.312 304.51C241.139 302.105 237.996 299.7 234.822 297.264Z" fill="#161616" stroke="#161616" stroke-width="2" stroke-miterlimit="10"/>
<path d="M213.223 260.264C216.889 263.101 220.402 262.083 227.674 263.317C233.867 264.365 240.831 266.678 248.226 271.303C240.338 280.553 232.45 290.327 224.623 300.625C222.744 303.123 220.864 305.62 219.046 308.118C222.066 308.827 225.702 309.937 229.646 311.725C233.497 313.452 236.64 315.394 239.136 317.152C250.875 306.915 261.352 297.018 270.688 287.675C275.002 283.358 281.102 276.76 282.058 267.418C282.119 266.893 282.119 266.431 282.119 265.968C281.904 250.459 262.399 239.236 250.536 235.104C237.564 230.603 215.256 228.167 209.032 238.928C205.365 245.279 207.522 255.855 213.223 260.264Z" fill="#85BAF3"/>
<path opacity="0.26" d="M235.993 244.755C235.777 247.684 235.253 251.168 234.175 255.023C233.405 257.767 232.48 260.203 231.556 262.268C230.539 262.669 229.553 263.07 228.536 263.471C235.161 266.092 241.816 268.713 248.441 271.333C243.511 276.976 238.55 282.896 233.559 289.063C228.413 295.414 223.514 301.643 218.861 307.778C222.158 308.858 225.424 309.937 228.721 310.985C240.522 297.973 252.324 284.931 264.125 271.919C265.357 268.373 265.296 265.598 264.926 263.656C263.231 254.159 251.615 246.42 235.993 244.755Z" fill="#6D6C6C"/>
<path opacity="0.23" d="M248.38 271.272C249.458 272.906 250.506 274.571 251.584 276.205C242.402 287.274 233.22 298.313 224.038 309.382C222.405 308.95 220.741 308.488 219.108 308.056C224.993 299.978 231.34 291.683 238.211 283.328C241.632 279.165 245.021 275.157 248.38 271.272Z" fill="#6D6C6C"/>
<path d="M217.721 285.547C226.811 287.212 235.931 288.847 245.021 290.512C255.528 313.452 256.699 320.852 254.727 322.116C253.31 323.01 250.352 320.79 247.055 318.293C238.797 312.033 234.206 304.572 231.71 299.546C226.225 298.806 220.741 298.035 215.256 297.295C216.057 293.379 216.889 289.463 217.721 285.547Z" fill="#161616" stroke="#161616" stroke-width="2" stroke-miterlimit="10"/>
<path d="M198.987 234.457C182.41 239.328 172.304 249.442 165.802 256.102C157.021 265.136 146.236 276.205 149.348 284.376C150.951 288.538 155.819 291.098 178.497 295.044C195.629 298.035 210.48 299.638 222.066 300.533C223.514 295.229 224.962 289.957 226.38 284.653C214.732 280.892 203.116 277.161 191.469 273.399C198.617 271.888 206.136 270.1 213.962 267.911C219.909 266.246 225.578 264.519 230.971 262.7C235.962 252.618 237.041 241.733 231.833 235.567C224.562 226.933 208.262 231.713 198.987 234.457Z" fill="#85BAF3"/>
<path opacity="0.29" d="M235.87 245.125C235.716 248.177 235.192 252.093 233.775 256.41C232.912 259.031 231.926 261.312 230.94 263.193C230.108 263.255 229.276 263.347 228.444 263.409C221.419 265.722 213.931 267.911 206.012 269.946C200.898 271.272 195.906 272.412 191.068 273.461C202.746 277.13 214.424 280.768 226.102 284.437C225.856 285.702 225.548 287.027 225.178 288.415C224.746 290.018 224.253 291.498 223.791 292.855C207.676 288.877 191.561 284.9 175.446 280.922C174.707 280.028 172.273 276.791 172.642 272.505C173.043 267.849 177.48 264.55 183.15 261.528C199.542 252.833 227.027 246.944 235.87 245.125Z" fill="#6D6C6C"/>
<path opacity="0.24" d="M182.78 274.108C185.707 273.893 188.665 273.677 191.592 273.43C203.085 277.253 214.578 281.108 226.071 284.931C225.578 286.75 225.085 288.6 224.592 290.419C210.665 284.962 196.707 279.535 182.78 274.108Z" fill="#6D6C6C"/>
<path d="M194.643 164.588C199.203 161.906 207.122 158.083 217.66 156.973C233.805 155.277 246.192 161.073 251.091 163.694C250.198 175.812 248.811 185.493 247.702 192.153C246.377 200.108 245.298 204.518 244.805 211.825C244.189 220.983 244.959 228.506 245.668 233.439C240.307 235.104 232.203 236.923 222.22 236.708C212.606 236.492 204.842 234.395 199.634 232.576C201.021 221.538 200.559 212.781 199.881 206.83C199.11 200.201 198.063 196.963 196.799 188.947C195.166 178.587 194.735 170.108 194.643 164.588Z" fill="white" stroke="#161616" stroke-width="2" stroke-miterlimit="10"/>
<path opacity="0.14" d="M227.982 160.642C228.629 162.985 229.368 166.223 229.861 170.108C230.2 172.728 231.587 184.599 227.273 200.263C224.623 209.913 221.819 220.119 212.637 228.506C209.679 231.219 206.814 233.038 204.718 234.179C209.371 235.382 215.441 236.523 222.62 236.584C232.018 236.677 239.783 234.981 245.175 233.316C244.867 231.003 244.466 227.519 244.312 223.326C244.189 219.657 244.189 213.798 246.716 197.303C248.718 184.322 250.136 178.741 250.845 166.993C250.937 165.637 250.968 164.496 251.029 163.725C248.78 162.399 245.853 160.95 242.248 159.778C238.92 158.699 235.931 158.144 233.466 157.898C231.679 158.792 229.83 159.717 227.982 160.642Z" fill="#6D6C6C"/>
<path opacity="0.17" d="M250.136 168.751C248.41 178.525 246.13 186.418 244.343 191.907C239.105 207.94 235.438 218.732 225.548 226.625C219.416 231.528 213.038 233.593 208.94 234.58C213.099 235.752 218.984 236.893 226.102 236.738C234.298 236.553 240.923 234.703 245.268 233.131C244.682 229.369 244.004 223.727 244.189 216.851C244.405 207.94 245.853 202.575 247.455 192.801C248.349 187.066 249.489 178.864 250.136 168.751Z" fill="#6D6C6C"/>
<path d="M194.458 164.434C190.452 167.209 185.306 171.587 180.808 178.093C170.67 192.832 170.948 208.464 171.348 214.23C173.197 219.194 176.371 225.7 181.917 232.082C185.152 235.813 189.897 241.178 198.001 244.632C200.713 245.803 203.085 246.451 204.811 246.821C206.29 245.495 207.738 244.169 209.217 242.843C204.472 237.293 199.696 231.466 194.92 225.453C191.253 220.859 187.741 216.296 184.351 211.794C184.474 208.002 185.276 201.126 189.404 193.942C191.746 189.872 194.489 186.912 196.676 184.907C195.937 178.093 195.197 171.279 194.458 164.434Z" fill="white" stroke="#161616" stroke-width="2" stroke-miterlimit="10"/>
<path opacity="0.13" d="M195.043 171.31C186.169 181.331 181.948 190.827 179.853 196.809C176.186 207.169 176.956 212.596 177.511 215.186C177.973 217.221 178.99 220.705 182.718 226.008C185.953 230.602 192.763 238.835 205.735 245.618C206.875 244.508 208.015 243.429 209.155 242.319C205.489 238.187 201.791 233.84 198.063 229.307C193.164 223.357 188.603 217.498 184.382 211.763C184.505 208.649 185.029 204.302 186.847 199.43C189.589 192.122 193.903 187.312 196.584 184.753C196.029 180.282 195.536 175.812 195.043 171.31Z" fill="#6D6C6C"/>
<path opacity="0.16" d="M184.351 212.164C184.906 215.772 186.046 220.366 188.449 225.33C193.749 236.122 202.038 242.073 206.259 244.663C207.091 243.923 207.892 243.213 208.724 242.473C200.589 232.36 192.486 222.247 184.351 212.164Z" fill="#6D6C6C"/>
<path d="M251.553 163.879C256.052 166.623 261.845 170.909 266.867 177.292C278.268 191.752 277.929 207.107 277.497 212.781C275.402 217.652 271.859 224.035 265.635 230.325C261.999 233.963 256.668 239.236 247.578 242.658C244.528 243.799 241.847 244.447 239.906 244.817C238.273 243.522 236.609 242.227 234.976 240.932C240.276 235.474 245.668 229.77 251.029 223.85C255.127 219.317 259.071 214.847 262.892 210.437C262.738 206.737 261.875 199.985 257.223 192.893C254.573 188.885 251.522 185.987 249.057 184.013C249.92 177.292 250.752 170.601 251.553 163.879Z" fill="white" stroke="#161616" stroke-width="2" stroke-miterlimit="10"/>
<path opacity="0.16" d="M251.338 171.372C255.251 175.472 260.581 182.04 264.741 191.197C266.713 195.545 269.917 202.606 269.979 209.266C270.195 229.523 241.539 243.46 239.875 244.262C238.242 243.213 236.64 242.196 235.007 241.147C244.282 230.972 253.525 220.797 262.8 210.622C262.615 207.292 261.845 201.095 258.147 194.497C255.097 189.07 251.307 185.555 248.811 183.612C249.674 179.542 250.506 175.472 251.338 171.372Z" fill="#6D6C6C"/>
<path opacity="0.12" d="M263.108 210.715C262.646 213.397 261.875 216.327 260.674 219.348C255.251 233.038 244.282 240.531 238.735 243.737C237.41 242.874 236.116 242.011 234.791 241.147C244.22 231.003 253.649 220.859 263.108 210.715Z" fill="#6D6C6C"/>
<path d="M258.64 212.997H182.872V261.004H258.64V212.997Z" fill="white" stroke="#161616" stroke-width="2" stroke-miterlimit="10"/>
<path d="M219.662 241.579C215.657 242.072 213.715 237.201 214.763 233.963C215.78 230.757 219.57 229.246 222.651 230.356C225.702 231.466 227.181 235.197 226.102 238.187C224.9 241.517 220.71 242.874 217.629 241.394C217.105 241.147 216.612 241.949 217.166 242.196C219.909 243.522 223.267 243.028 225.455 240.87C227.581 238.742 227.889 235.382 226.564 232.761C223.545 226.779 214.208 228.691 213.561 235.258C213.222 238.773 215.749 242.997 219.662 242.535C220.248 242.442 220.248 241.517 219.662 241.579Z" fill="#161616"/>
<path opacity="0.14" d="M211.312 212.873C221.573 216.45 228.567 225.607 228.783 235.443C229.06 247.777 218.707 259.37 204.595 260.542C222.559 260.696 240.522 260.85 258.517 261.004C258.455 244.909 258.424 228.814 258.363 212.75C242.679 212.75 226.996 212.812 211.312 212.873Z" fill="#6D6C6C"/>
<path opacity="0.26" d="M258.517 212.719C258.24 222.524 256.298 230.171 254.665 235.197C252.262 242.504 250.536 247.838 245.576 252.556C238.828 259.031 230.416 260.233 226.718 260.542C237.225 260.634 247.732 260.727 258.24 260.85C258.27 251.693 258.332 242.535 258.394 233.347C258.394 226.471 258.455 219.595 258.517 212.719Z" fill="#6D6C6C"/>
<path d="M218.522 139.706C216.828 141.772 218.461 144.3 218.153 151.052C217.998 154.413 217.444 157.127 217.012 158.946C218.461 159.624 221.018 160.58 224.315 160.672C228.382 160.765 231.464 159.501 232.973 158.761C232.295 157.404 231.402 155.307 230.847 152.594C229.461 145.687 231.926 142.45 229.892 139.891C227.52 136.931 220.802 136.9 218.522 139.706Z" fill="white" stroke="#161616" stroke-width="2" stroke-miterlimit="10"/>
<path d="M207.769 110.044C205.828 115.039 206.567 119.541 206.998 121.483C206.814 121.514 203.208 122.285 202.222 125.06C201.236 127.866 203.27 131.843 207.522 133.138C209.063 136.9 212.791 144.177 220.648 148.154C221.973 148.802 223.237 149.326 224.5 149.696C225.64 149.264 227.181 148.586 228.937 147.568C234.422 144.393 237.472 140.446 238.181 139.49C239.475 137.763 241.231 134.988 242.464 131.165C243.142 131.288 244.343 131.35 245.514 130.764C248.164 129.408 249.489 125.183 247.64 122.439C246.1 120.158 243.111 120.065 242.741 120.065C243.141 118.462 244.374 112.696 241.262 106.992C237.688 100.424 230.015 96.9708 222.805 97.9575C212.144 99.345 207.954 109.551 207.769 110.044Z" fill="white" stroke="#161616" stroke-width="2" stroke-miterlimit="10"/>
<path d="M218.122 147.877C220.001 148.987 222.066 150.713 224.377 150.528C226.287 150.374 228.413 149.264 229.861 148.093C230.323 147.723 229.676 147.075 229.214 147.445C227.858 148.524 225.671 149.665 223.884 149.634C222.004 149.603 220.094 148.031 218.553 147.075C218.091 146.767 217.629 147.568 218.122 147.877Z" fill="#161616"/>
<path d="M217.998 148.278C219.755 149.788 221.758 151.484 224.223 151.361C226.626 151.238 228.875 149.634 230.447 147.908C230.847 147.476 230.2 146.828 229.8 147.26C228.444 148.74 226.534 150.189 224.438 150.405C222.127 150.621 220.279 149.048 218.646 147.63C218.214 147.229 217.567 147.877 217.998 148.278Z" fill="#161616"/>
<path d="M219.169 148.463C219.169 148.432 219.169 148.432 219.169 148.463C218.984 148.185 218.646 148.123 218.43 148.339C218.43 148.339 218.43 148.339 218.399 148.37C218.214 148.524 218.214 148.863 218.399 149.018C221.788 152.255 228.013 153.303 230.447 148.339C230.693 147.815 229.923 147.322 229.646 147.877C227.489 152.317 222.035 151.238 219.077 148.37C219.077 148.586 219.077 148.802 219.077 149.018C219.077 149.018 219.077 149.018 219.108 148.987C218.861 148.956 218.615 148.925 218.368 148.894V148.925C218.676 149.418 219.477 148.956 219.169 148.463Z" fill="#161616"/>
<path d="M222.867 119.942C222.466 124.937 222.682 129.901 223.483 134.834C223.514 135.081 223.822 135.235 224.038 135.142C225.239 134.742 226.102 134.032 226.749 132.953C227.057 132.429 226.256 131.967 225.948 132.491C225.424 133.385 224.777 133.909 223.791 134.248C223.976 134.341 224.161 134.464 224.346 134.557C223.545 129.716 223.36 124.813 223.76 119.911C223.853 119.325 222.929 119.325 222.867 119.942Z" fill="#161616"/>
<path d="M217.382 124.844C217.444 125.122 217.906 126.848 217.382 127.126C216.858 127.403 215.379 126.293 214.917 124.844C214.547 123.611 214.856 122.069 215.441 121.946C216.057 121.792 217.012 123.488 217.382 124.844Z" fill="#161616" stroke="#161616" stroke-miterlimit="10"/>
<path d="M233.281 124.844C233.343 125.122 233.805 126.848 233.281 127.126C232.758 127.403 231.279 126.293 230.816 124.844C230.447 123.611 230.755 122.069 231.34 121.946C231.957 121.792 232.912 123.488 233.281 124.844Z" fill="#161616" stroke="#161616" stroke-miterlimit="10"/>
<path d="M221.758 138.904C225.517 140.507 228.937 138.257 231.71 135.821C232.172 135.42 231.494 134.772 231.063 135.173C228.66 137.27 225.578 139.521 222.251 138.102C221.665 137.887 221.203 138.688 221.758 138.904Z" fill="#161616"/>
<path d="M232.604 129.747C233.189 129.747 233.189 128.822 232.604 128.822C232.018 128.822 232.018 129.747 232.604 129.747Z" fill="#161616"/>
<path d="M236.024 128.02C236.055 127.989 236.085 127.958 236.116 127.927C236.301 127.742 236.301 127.465 236.116 127.28C235.931 127.095 235.654 127.095 235.469 127.28C235.438 127.311 235.408 127.342 235.377 127.372C235.192 127.557 235.192 127.835 235.377 128.02C235.562 128.205 235.839 128.205 236.024 128.02Z" fill="#161616"/>
<path d="M235.007 130.271C235.038 130.271 235.069 130.271 235.099 130.271C235.346 130.271 235.562 130.055 235.562 129.808C235.562 129.562 235.346 129.346 235.099 129.346C235.069 129.346 235.038 129.346 235.007 129.346C234.76 129.346 234.545 129.562 234.545 129.808C234.545 130.055 234.73 130.271 235.007 130.271Z" fill="#161616"/>
<path d="M213.746 119.325C214.917 118.338 216.643 118.307 217.814 119.263C218.276 119.633 218.923 118.986 218.461 118.616C216.858 117.321 214.64 117.321 213.068 118.677C212.637 119.047 213.315 119.695 213.746 119.325Z" fill="#161616"/>
<path d="M228.783 118.986C230.108 117.814 231.987 117.598 233.559 118.431C234.083 118.708 234.545 117.907 234.021 117.629C232.08 116.581 229.769 116.858 228.136 118.338C227.674 118.739 228.321 119.387 228.783 118.986Z" fill="#161616"/>
<path d="M213.993 129.654C214.578 129.654 214.578 128.729 213.993 128.729C213.407 128.729 213.407 129.654 213.993 129.654Z" fill="#161616"/>
<path d="M217.259 129.222C217.844 129.222 217.844 128.297 217.259 128.297C216.673 128.297 216.673 129.222 217.259 129.222Z" fill="#161616"/>
<path d="M215.626 129.932C215.595 129.962 215.564 129.993 215.533 130.024C215.349 130.209 215.349 130.487 215.533 130.672C215.718 130.857 215.996 130.857 216.18 130.672C216.211 130.641 216.242 130.61 216.273 130.579C216.458 130.394 216.458 130.117 216.273 129.932C216.088 129.747 215.811 129.747 215.626 129.932Z" fill="#161616"/>
<path d="M212.791 100.023C210.942 101.164 206.906 103.662 204.164 108.78C201.421 113.867 201.452 118.677 201.575 120.743C197.077 128.853 195.043 136.006 194.057 140.877C192.455 148.617 193.318 151.453 194.427 153.334C197.138 157.959 202.592 159.1 203.917 159.378C210.727 160.827 216.15 157.343 217.382 156.541C217.721 155.523 218.06 154.259 218.245 152.841C218.584 150.405 218.399 148.308 218.122 146.798C216.581 145.533 214.794 143.837 213.068 141.617C210.449 138.226 208.97 134.896 208.138 132.491C205.427 132.213 203.393 130.363 203.208 128.298C203.024 126.355 204.379 123.858 206.166 123.858C207.491 123.858 208.447 125.214 208.631 125.461C209.648 124.875 211.066 123.857 212.329 122.254C214.147 119.942 214.455 117.876 215.287 115.717C216.088 113.621 217.629 110.722 220.956 107.701C224.161 108.842 226.718 109.952 228.475 110.784C234.113 113.405 237.318 114.947 239.814 118.308C241.2 120.158 241.909 121.977 242.279 123.117C245.144 120.928 246.315 121.514 246.562 121.637C248.38 122.655 248.318 128.236 245.483 129.777C244.405 130.363 243.172 130.209 242.402 130.024C241.508 133.138 239.536 138.226 235.007 142.727C233.497 144.238 231.956 145.41 230.57 146.304C230.447 147.445 230.385 149.017 230.693 150.867C230.97 152.563 231.463 153.951 231.926 154.938C239.413 159.871 248.718 158.977 253.772 153.673C258.27 148.925 258.27 141.741 256.576 136.838C255.035 132.367 252.046 129.685 250.567 128.513C250.968 126.787 253.186 116.55 246.746 107.146C245.083 104.71 240.43 98.8208 232.049 96.7858C223.175 94.6275 215.872 98.1425 212.791 100.023Z" fill="#0245A3"/>
<path opacity="0.17" d="M232.326 112.696C235.808 117.074 236.732 121.113 237.041 123.21C238.304 132.028 233.189 139.182 230.601 142.851C228.475 145.842 226.287 147.969 224.716 149.357C226.071 152.995 227.396 156.603 228.752 160.241C230.139 159.778 231.525 159.316 232.912 158.853C232.265 157.713 231.587 156.294 231.063 154.568C230.108 151.484 230.046 148.771 230.139 146.921C231.833 145.718 233.805 144.084 235.716 141.926C239.536 137.609 241.447 133.169 242.433 130.178C243.049 130.302 244.374 130.456 245.637 129.747C248.287 128.236 247.856 124.474 247.825 124.228C247.733 123.426 247.548 122.131 246.623 121.607C245.545 121.021 243.758 121.576 242.34 123.241C241.909 121.73 240.676 118.246 237.349 115.471C235.5 113.929 233.62 113.128 232.326 112.696Z" fill="#6D6C6C"/>
<path opacity="0.19" d="M223.298 120.219C223.113 120.188 222.497 122.871 220.618 134.711C221.696 134.711 222.774 134.711 223.853 134.711C223.637 133.138 223.391 130.857 223.267 128.082C223.113 123.333 223.483 120.25 223.298 120.219Z" fill="#6D6C6C"/>
<path opacity="0.54" d="M250.382 128.822C249.859 129.13 251.831 131.782 251.553 135.728C251.461 136.962 251.276 139.767 249.057 141.648C248.903 141.772 245.606 144.485 242.34 142.758C240.399 141.741 239.228 139.582 239.29 137.239C238.366 138.966 236.856 141.247 234.483 143.467C233.004 144.855 231.556 145.872 230.293 146.643C230.2 148 230.2 149.85 230.693 151.947C230.971 153.087 231.309 154.074 231.648 154.876C232.604 155.492 234.021 156.325 235.87 156.972C237.041 157.373 243.48 159.624 249.766 156.51C250.875 155.955 253.34 154.691 255.128 151.977C255.343 151.638 256.144 150.436 256.73 148.401C258.825 141.432 255.744 135.142 255.466 134.618C253.772 131.196 251.029 128.452 250.382 128.822Z" fill="#06224A"/>
<path opacity="0.35" d="M208.108 132.614C207.83 132.645 208.447 135.173 207.769 137.671C207.276 139.521 205.704 142.543 203.024 143.159C200.22 143.776 196.738 141.71 195.136 137.856C194.396 139.552 193.41 142.265 193.256 145.718C193.164 147.969 193.04 150.374 194.15 152.748C196.645 158.052 203.979 160.118 209.433 159.624C213.068 159.285 215.811 157.867 217.29 156.911C217.66 155.863 218.029 154.598 218.276 153.149C218.676 150.652 218.584 148.463 218.368 146.859C215.934 145.102 214.27 143.283 213.223 141.957C211.744 140.076 209.741 137.548 208.724 134.033C208.57 133.632 208.293 132.583 208.108 132.614Z" fill="#06224A"/>
</svg>
